<svg width="65" height="18" viewBox="0 0 65 18" fill="none" xmlns="http://www.w3.org/2000/svg">
<path d="M33.2 5.17883V7.58107C33.2 8.00039 33.1848 8.3995 33.1545 8.7784C33.1292 9.1573 33.109 9.42506 33.0939 9.58168H33.2151C33.397 9.28866 33.6117 9.05121 33.8593 8.86934C34.1119 8.68747 34.3897 8.55359 34.6928 8.4677C34.996 8.38182 35.3218 8.33888 35.6704 8.33888C36.2817 8.33888 36.8147 8.44749 37.2694 8.66473C37.7241 8.87692 38.0777 9.21288 38.3303 9.67261C38.5829 10.1273 38.7092 10.7184 38.7092 11.4459V16.9703H36.3979V12.0218C36.3979 11.4156 36.2868 10.9584 36.0645 10.6502C35.8422 10.342 35.4986 10.1879 35.0339 10.1879C34.5691 10.1879 34.2028 10.2965 33.935 10.5138C33.6673 10.726 33.4778 11.0417 33.3667 11.461C33.2555 11.8753 33.2 12.383 33.2 12.9842V16.9703H30.8887V5.17883H33.2Z" fill="#2C328B"/>
<path d="M27.7146 15.2794C27.9672 15.2794 28.2123 15.2541 28.4497 15.2036C28.6922 15.1531 28.9322 15.09 29.1696 15.0142V16.7344C28.9221 16.8455 28.6139 16.9365 28.2451 17.0072C27.8814 17.083 27.4822 17.1209 27.0478 17.1209C26.5426 17.1209 26.0879 17.04 25.6837 16.8784C25.2846 16.7117 24.9689 16.4262 24.7365 16.022C24.5091 15.6128 24.3955 15.0445 24.3955 14.317V10.2324H23.2891V9.25486L24.5622 8.4819L25.229 6.69348H26.7068V8.49706H29.0787V10.2324H26.7068V14.317C26.7068 14.6403 26.7977 14.8828 26.9796 15.0445C27.1665 15.2011 27.4115 15.2794 27.7146 15.2794Z" fill="#2C328B"/>
<path d="M18.4736 8.33997C19.2567 8.33997 19.9311 8.49153 20.497 8.79465C21.0628 9.09272 21.4998 9.52719 21.808 10.0981C22.1161 10.669 22.2702 11.3661 22.2702 12.1896V13.3112H16.8065C16.8317 13.9629 17.0262 14.4757 17.39 14.8495C17.7588 15.2183 18.269 15.4027 18.9207 15.4027C19.4613 15.4027 19.9564 15.3471 20.406 15.236C20.8557 15.1248 21.3179 14.9581 21.7928 14.7358V16.5243C21.3735 16.7314 20.934 16.8829 20.4742 16.9789C20.0195 17.0749 19.4664 17.1229 18.8146 17.1229C17.9659 17.1229 17.2131 16.9663 16.5564 16.6531C15.9047 16.3399 15.3919 15.8624 15.018 15.2208C14.6492 14.5792 14.4648 13.7709 14.4648 12.7959C14.4648 11.8057 14.6316 10.9822 14.965 10.3254C15.3035 9.6636 15.7733 9.1685 16.3745 8.84012C16.9757 8.50668 17.6754 8.33997 18.4736 8.33997ZM18.4888 9.9844C18.0392 9.9844 17.6653 10.1284 17.3672 10.4163C17.0742 10.7043 16.905 11.1565 16.8595 11.7728H20.1029C20.0979 11.4293 20.0347 11.1236 19.9135 10.8559C19.7973 10.5881 19.6204 10.3759 19.383 10.2193C19.1506 10.0627 18.8525 9.9844 18.4888 9.9844Z" fill="#2C328B"/>
<path d="M11.8162 15.2794C12.0688 15.2794 12.3138 15.2541 12.5513 15.2036C12.7938 15.1531 13.0337 15.09 13.2712 15.0142V16.7344C13.0236 16.8455 12.7155 16.9365 12.3467 17.0072C11.9829 17.083 11.5838 17.1209 11.1493 17.1209C10.6441 17.1209 10.1894 17.04 9.78529 16.8784C9.38618 16.7117 9.07042 16.4262 8.83803 16.022C8.61069 15.6128 8.49702 15.0445 8.49702 14.317V10.2324H7.39062V9.25486L8.66374 8.4819L9.3306 6.69348H10.8083V8.49706H13.1802V10.2324H10.8083V14.317C10.8083 14.6403 10.8993 14.8828 11.0811 15.0445C11.2681 15.2011 11.5131 15.2794 11.8162 15.2794Z" fill="#2C328B"/>
<path d="M6.42618 14.4554C6.42618 15.0314 6.28977 15.5189 6.01697 15.918C5.74921 16.3121 5.34757 16.6127 4.81206 16.8198C4.27654 17.0219 3.60967 17.1229 2.81145 17.1229C2.22037 17.1229 1.71264 17.085 1.28827 17.0092C0.868949 16.9335 0.444578 16.8072 0.0151561 16.6303V14.7207C0.474891 14.9278 0.967463 15.0996 1.49287 15.236C2.02334 15.3673 2.48812 15.433 2.88723 15.433C3.33686 15.433 3.65767 15.3673 3.84965 15.236C4.04667 15.0996 4.14519 14.9228 4.14519 14.7055C4.14519 14.5641 4.10477 14.4378 4.02394 14.3266C3.94816 14.2104 3.78144 14.0816 3.52379 13.9401C3.26614 13.7936 2.86197 13.6042 2.3113 13.3718C1.78084 13.1495 1.34384 12.9247 1.0003 12.6973C0.661816 12.47 0.409214 12.2022 0.242497 11.8941C0.0808324 11.5808 0 11.1843 0 10.7043C0 9.92125 0.303122 9.33269 0.909365 8.93863C1.52066 8.53952 2.33656 8.33997 3.35707 8.33997C3.88248 8.33997 4.38263 8.39301 4.85752 8.4991C5.33747 8.6052 5.83004 8.77444 6.33524 9.00683L5.63806 10.674C5.21875 10.4921 4.82216 10.3431 4.44831 10.2269C4.07951 10.1107 3.70314 10.0526 3.31918 10.0526C2.9807 10.0526 2.72557 10.0981 2.5538 10.189C2.38203 10.2799 2.29615 10.4189 2.29615 10.6058C2.29615 10.7422 2.33909 10.8635 2.42497 10.9695C2.51591 11.0756 2.68768 11.1944 2.94028 11.3257C3.19793 11.452 3.57431 11.6162 4.06941 11.8183C4.54935 12.0153 4.96614 12.2224 5.31979 12.4397C5.67343 12.6519 5.94624 12.9171 6.13821 13.2354C6.33019 13.5486 6.42618 13.9553 6.42618 14.4554Z" fill="#2C328B"/>
<path d="M54.3965 2.87C55.629 2.87 56.5284 3.13566 57.0946 3.667C57.6607 4.19397 57.9438 4.92129 57.9438 5.84895C57.9438 6.26705 57.8807 6.66773 57.7544 7.05098C57.6281 7.42989 57.4212 7.76741 57.1338 8.06357C56.8507 8.35972 56.4718 8.5949 55.9971 8.76911C55.5223 8.93896 54.9366 9.02389 54.2397 9.02389H53.3709V12.4209H51.3457V2.87H54.3965ZM54.292 4.52933H53.3709V7.36456H54.0372C54.4161 7.36456 54.7449 7.31447 55.0237 7.2143C55.3024 7.11413 55.518 6.95735 55.6704 6.74394C55.8228 6.53054 55.8991 6.25616 55.8991 5.92081C55.8991 5.45045 55.7684 5.10203 55.5071 4.87556C55.2458 4.64474 54.8407 4.52933 54.292 4.52933Z" fill="#F5751A"/>
<path d="M48.9917 2.87292V9.05295C48.9917 9.71058 48.8458 10.3051 48.554 10.8364C48.2666 11.3634 47.8289 11.7815 47.2409 12.0907C46.6573 12.3999 45.9213 12.5545 45.0328 12.5545C43.7698 12.5545 42.8073 12.2322 42.1453 11.5877C41.4833 10.9431 41.1523 10.0895 41.1523 9.02682V2.87292H43.171V8.71978C43.171 9.50807 43.3321 10.0612 43.6544 10.3791C43.9767 10.697 44.4536 10.856 45.0851 10.856C45.5293 10.856 45.8886 10.7798 46.163 10.6274C46.4417 10.4749 46.6464 10.2397 46.7771 9.92181C46.9077 9.60388 46.9731 9.19885 46.9731 8.70671V2.87292H48.9917Z" fill="#F5751A"/>
<path d="M62.6765 3.0563L61.7964 0.503809H61.7776C61.7818 0.560949 61.7867 0.638994 61.7922 0.737945C61.7978 0.836895 61.8027 0.942813 61.8069 1.0557C61.8111 1.16859 61.8131 1.2766 61.8131 1.37973V3.0563H61.3574V0H62.0619L62.9086 2.43961H62.9211L63.797 0H64.4994V3.0563H64.0207V1.35464C64.0207 1.26126 64.0221 1.16022 64.0249 1.05152C64.0291 0.942813 64.0333 0.839682 64.0374 0.742126C64.043 0.644569 64.0472 0.566524 64.05 0.50799H64.0333L63.1197 3.0563H62.6765Z" fill="#2C328B"/>
<path d="M59.9903 3.0563H59.4865V0.426461H58.5918V0H60.883V0.426461H59.9903V3.0563Z" fill="#2C328B"/>
</svg>
